<mxfile host="app.diagrams.net" modified="2023-10-10T11:16:26.343Z" agent="Mozilla/5.0 (Windows NT 10.0; Win64; x64) AppleWebKit/537.36 (KHTML, like Gecko) Chrome/117.0.0.0 Safari/537.36" etag="ne32HhzR9OeXy5mlOfhy" version="22.0.4" type="github">
  <diagram name="Page-1" id="KUcY4GriZHKpEploGx69">
    <mxGraphModel dx="1509" dy="949" grid="1" gridSize="10" guides="1" tooltips="1" connect="1" arrows="1" fold="1" page="1" pageScale="1" pageWidth="1100" pageHeight="850" math="0" shadow="0">
      <root>
        <mxCell id="0" />
        <mxCell id="1" parent="0" />
        <mxCell id="8R-gBVoHRpmWF-JJdqtM-2" value="&lt;font style=&quot;font-size: 14px;&quot;&gt;ElysianCrestRG&lt;/font&gt;" style="fontStyle=0;verticalAlign=top;align=center;spacingTop=-2;fillColor=none;rounded=0;whiteSpace=wrap;html=1;strokeColor=#919191;strokeWidth=2;dashed=1;container=1;collapsible=0;expand=0;recursiveResize=0;" vertex="1" parent="1">
          <mxGeometry x="570" y="250" width="270" height="330" as="geometry" />
        </mxCell>
        <mxCell id="8R-gBVoHRpmWF-JJdqtM-1" value="" style="image;sketch=0;aspect=fixed;html=1;points=[];align=center;fontSize=12;image=img/lib/mscae/ResourceGroup.svg;" vertex="1" parent="8R-gBVoHRpmWF-JJdqtM-2">
          <mxGeometry x="250" y="-20" width="50" height="40" as="geometry" />
        </mxCell>
        <mxCell id="8R-gBVoHRpmWF-JJdqtM-5" value="elysiancstorageaccount" style="fontStyle=0;verticalAlign=top;align=center;spacingTop=-2;fillColor=none;rounded=0;whiteSpace=wrap;html=1;strokeColor=#919191;strokeWidth=2;dashed=1;container=1;collapsible=0;expand=0;recursiveResize=0;" vertex="1" parent="8R-gBVoHRpmWF-JJdqtM-2">
          <mxGeometry x="45" y="80" width="190" height="200" as="geometry" />
        </mxCell>
        <mxCell id="8R-gBVoHRpmWF-JJdqtM-8" value="" style="image;aspect=fixed;html=1;points=[];align=center;fontSize=12;image=img/lib/azure2/storage/Storage_Accounts_Classic.svg;" vertex="1" parent="8R-gBVoHRpmWF-JJdqtM-5">
          <mxGeometry x="177.5" y="-10" width="27.5" height="22" as="geometry" />
        </mxCell>
        <mxCell id="8R-gBVoHRpmWF-JJdqtM-9" value="&lt;font style=&quot;font-size: 10px;&quot;&gt;elysianccustomerfeedbackimages&lt;/font&gt;" style="image;aspect=fixed;html=1;points=[];align=center;fontSize=12;image=img/lib/azure2/general/Storage_Container.svg;" vertex="1" parent="8R-gBVoHRpmWF-JJdqtM-5">
          <mxGeometry x="75.31" y="70" width="39.38" height="32" as="geometry" />
        </mxCell>
        <mxCell id="8R-gBVoHRpmWF-JJdqtM-13" style="rounded=0;orthogonalLoop=1;jettySize=auto;html=1;" edge="1" parent="1" source="8R-gBVoHRpmWF-JJdqtM-10" target="8R-gBVoHRpmWF-JJdqtM-12">
          <mxGeometry relative="1" as="geometry" />
        </mxCell>
        <mxCell id="8R-gBVoHRpmWF-JJdqtM-10" value="GitHub" style="dashed=0;outlineConnect=0;html=1;align=center;labelPosition=center;verticalLabelPosition=bottom;verticalAlign=top;shape=mxgraph.weblogos.github" vertex="1" parent="1">
          <mxGeometry x="180" y="360" width="52" height="52" as="geometry" />
        </mxCell>
        <mxCell id="8R-gBVoHRpmWF-JJdqtM-16" style="rounded=0;orthogonalLoop=1;jettySize=auto;html=1;" edge="1" parent="1" source="8R-gBVoHRpmWF-JJdqtM-11" target="8R-gBVoHRpmWF-JJdqtM-2">
          <mxGeometry relative="1" as="geometry" />
        </mxCell>
        <mxCell id="8R-gBVoHRpmWF-JJdqtM-11" value="Terraform Cloud" style="image;aspect=fixed;perimeter=ellipsePerimeter;html=1;align=center;shadow=0;dashed=0;spacingTop=3;image=img/lib/active_directory/internet_cloud.svg;" vertex="1" parent="1">
          <mxGeometry x="480" y="318.5" width="50" height="31.5" as="geometry" />
        </mxCell>
        <mxCell id="8R-gBVoHRpmWF-JJdqtM-14" style="rounded=0;orthogonalLoop=1;jettySize=auto;html=1;entryX=0;entryY=0.75;entryDx=0;entryDy=0;" edge="1" parent="1" source="8R-gBVoHRpmWF-JJdqtM-12" target="8R-gBVoHRpmWF-JJdqtM-11">
          <mxGeometry relative="1" as="geometry" />
        </mxCell>
        <mxCell id="8R-gBVoHRpmWF-JJdqtM-12" value="GitHub Actions" style="sketch=0;outlineConnect=0;fontColor=#232F3E;gradientColor=none;fillColor=#232F3D;strokeColor=none;dashed=0;verticalLabelPosition=bottom;verticalAlign=top;align=center;html=1;fontSize=12;fontStyle=0;aspect=fixed;pointerEvents=1;shape=mxgraph.aws4.git_repository;" vertex="1" parent="1">
          <mxGeometry x="330" y="350" width="30" height="39" as="geometry" />
        </mxCell>
        <mxCell id="8R-gBVoHRpmWF-JJdqtM-19" style="rounded=0;orthogonalLoop=1;jettySize=auto;html=1;" edge="1" parent="1" source="8R-gBVoHRpmWF-JJdqtM-18" target="8R-gBVoHRpmWF-JJdqtM-10">
          <mxGeometry relative="1" as="geometry" />
        </mxCell>
        <mxCell id="8R-gBVoHRpmWF-JJdqtM-22" style="rounded=0;orthogonalLoop=1;jettySize=auto;html=1;exitX=0.87;exitY=0.65;exitDx=0;exitDy=0;exitPerimeter=0;entryX=0;entryY=0.5;entryDx=0;entryDy=0;" edge="1" parent="1" source="8R-gBVoHRpmWF-JJdqtM-18" target="8R-gBVoHRpmWF-JJdqtM-21">
          <mxGeometry relative="1" as="geometry" />
        </mxCell>
        <mxCell id="8R-gBVoHRpmWF-JJdqtM-18" value="Developer" style="verticalLabelPosition=bottom;html=1;verticalAlign=top;align=center;strokeColor=none;fillColor=#00BEF2;shape=mxgraph.azure.user;" vertex="1" parent="1">
          <mxGeometry x="340" y="460" width="47.5" height="50" as="geometry" />
        </mxCell>
        <mxCell id="8R-gBVoHRpmWF-JJdqtM-23" style="rounded=0;orthogonalLoop=1;jettySize=auto;html=1;entryX=0.5;entryY=1;entryDx=0;entryDy=0;" edge="1" parent="1" source="8R-gBVoHRpmWF-JJdqtM-21" target="8R-gBVoHRpmWF-JJdqtM-11">
          <mxGeometry relative="1" as="geometry" />
        </mxCell>
        <mxCell id="8R-gBVoHRpmWF-JJdqtM-21" value="Cli" style="shape=image;html=1;verticalAlign=top;verticalLabelPosition=bottom;labelBackgroundColor=#ffffff;imageAspect=0;aspect=fixed;image=https://cdn4.iconfinder.com/data/icons/icocentre-free-icons/170/f-command_256-128.png" vertex="1" parent="1">
          <mxGeometry x="480" y="440" width="45" height="45" as="geometry" />
        </mxCell>
      </root>
    </mxGraphModel>
  </diagram>
</mxfile>
